# xmcd
# 
# Track frame offsets:
#     150
#     23442
#     42190
#     60227
#     78090
#     91400
#     104295
#     122950
#     138427
#     153542
# 
# Disc length: 2242
# 
# Revision: 5
# Processed by: cddbd v1.5.2PL0 Copyright (c) Steve Scherf et al.
# Submitted via: fre:ac v1.0.27
# 
DISCID=7108c00a
DTITLE=Kenny Rogers - I Perfer the Moonlight
DYEAR=1987
DGENRE=Country
TTITLE0=I Perfer The Moonlight
TTITLE1=Now And Forever
TTITLE2=We're Doin' Alright
TTITLE3=Make No Mistake, She's Mine (Duet With Ronnie Milsap)
TTITLE4=One More Day
TTITLE5=She's Ready For Someone To Love Her
TTITLE6=I Don't Call Him Daddy
TTITLE7=The Factory
TTITLE8=We Fell In Love Anyway
TTITLE9=You Can't Say (You Don't Love Me Anymore)
EXTD=
EXTT0=
EXTT1=
EXTT2=
EXTT3=
EXTT4=
EXTT5=
EXTT6=
EXTT7=
EXTT8=
EXTT9=
PLAYORDER=
